<?xml version="1.0" encoding="utf-8"?>
<!-- Generator: Adobe Illustrator 18.1.0, SVG Export Plug-In . SVG Version: 6.00 Build 0)  -->
<svg version="1.1" id="Layer_1" xmlns="http://www.w3.org/2000/svg" xmlns:xlink="http://www.w3.org/1999/xlink" x="0px" y="0px"
	 viewBox="0 0 150 150" enable-background="new 0 0 150 150" xml:space="preserve">
<g>
	<path fill-rule="evenodd" clip-rule="evenodd" fill="#3FAFD2" d="M75.5,105.1c-13,0-23.5-10.5-23.5-23.5c0-13,10.5-23.5,23.5-23.5
		c13,0,23.5,10.5,23.5,23.5C98.9,94.5,88.4,105.1,75.5,105.1L75.5,105.1z"/>
	<path fill="#0B232B" d="M87.3,81.9C87.3,75.3,82,70,75.5,70c-6.5,0-11.8,5.3-11.8,11.8c0,6.5,5.3,11.8,11.8,11.8
		C82,93.7,87.3,88.4,87.3,81.9z"/>
	<path fill-rule="evenodd" clip-rule="evenodd" fill="#FFFFFF" d="M76,75.4c1.8,1.8,1.8,4.8,0,6.7c-1.8,1.8-4.8,1.8-6.7,0
		c-1.1-1.1-1.6-2.7-1.3-4.2c-0.3-0.1-0.5-0.3-0.7-0.5c-1.1-1.1-1.1-2.9,0-4c1.1-1.1,2.9-1.1,4,0c0.2,0.2,0.4,0.4,0.5,0.7
		C73.3,73.8,74.8,74.2,76,75.4L76,75.4z"/>
	<path fill="#0B232B" d="M67.7,69.3L64.4,64c-1.1,0.7-2.1,1.5-3.1,2.4l4.3,4.6C66.3,70.3,67,69.8,67.7,69.3z"/>
	<path fill="#0B232B" d="M64.8,71.7l-4.6-4.3c-0.9,1-1.7,2-2.4,3.1l5.3,3.3C63.7,73.1,64.2,72.4,64.8,71.7z"/>
	<path fill="#0B232B" d="M61,82.1l-6.2,0.2c0,1.3,0.2,2.6,0.5,3.9l6.1-1.4C61.1,83.9,61,83,61,82.1z"/>
	<path fill="#0B232B" d="M71.2,67.7l-1.8-6c-1.3,0.4-2.5,0.9-3.6,1.5l2.9,5.5C69.5,68.3,70.3,68,71.2,67.7z"/>
	<path fill="#0B232B" d="M62.6,74.8l-5.5-2.9c-0.6,1.1-1.1,2.3-1.5,3.6l6,1.8C61.9,76.4,62.2,75.6,62.6,74.8z"/>
	<path fill="#0B232B" d="M61.3,78.4l-6.1-1.4c-0.3,1.3-0.5,2.5-0.5,3.9L61,81C61,80.1,61.1,79.2,61.3,78.4z"/>
	<path fill="#0B232B" d="M85.3,70.9l4.3-4.6c-1-0.9-2-1.7-3.1-2.4l-3.3,5.3C83.9,69.8,84.6,70.3,85.3,70.9z"/>
	<path fill="#0B232B" d="M87.7,73.8l5.3-3.3c-0.7-1.1-1.5-2.1-2.4-3.1l-4.6,4.3C86.7,72.4,87.2,73.1,87.7,73.8z"/>
	<path fill="#0B232B" d="M74.9,67.1l-0.2-6.2c-1.3,0-2.6,0.2-3.9,0.5l1.4,6.1C73.1,67.2,74,67.1,74.9,67.1z"/>
	<path fill="#0B232B" d="M89.3,77.3l6-1.8c-0.4-1.3-0.9-2.5-1.5-3.6l-5.5,2.9C88.7,75.6,89,76.4,89.3,77.3z"/>
	<path fill="#0B232B" d="M82.2,68.7l2.9-5.5c-1.1-0.6-2.3-1.1-3.6-1.5l-1.8,6C80.6,68,81.4,68.3,82.2,68.7z"/>
	<path fill="#0B232B" d="M80.1,61.3c-1.2-0.3-2.5-0.5-3.9-0.5L76,67.1c0.9,0,1.8,0.1,2.6,0.3L80.1,61.3z"/>
	<path fill="#0B232B" d="M89.9,81l6.2-0.2c0-1.3-0.2-2.6-0.5-3.9l-6.1,1.4C89.8,79.2,89.9,80.1,89.9,81z"/>
	<path fill="#0B232B" d="M86.1,91.4l4.6,4.3c0.9-0.9,1.7-2,2.4-3.1l-5.3-3.3C87.2,90,86.7,90.7,86.1,91.4z"/>
	<path fill="#0B232B" d="M79.7,95.4l1.8,6c1.3-0.4,2.5-0.9,3.6-1.5l-2.9-5.5C81.4,94.8,80.6,95.1,79.7,95.4z"/>
	<path fill="#0B232B" d="M83.2,93.8l3.3,5.3c1.1-0.7,2.1-1.5,3.1-2.4l-4.3-4.6C84.6,92.8,83.9,93.3,83.2,93.8z"/>
	<path fill="#0B232B" d="M88.3,88.3l5.5,2.9c0.6-1.1,1.1-2.3,1.5-3.6l-6-1.8C89,86.7,88.7,87.5,88.3,88.3z"/>
	<path fill="#0B232B" d="M89.6,84.8l6.1,1.4c0.3-1.3,0.5-2.5,0.5-3.9l-6.2-0.2C89.9,83,89.8,83.9,89.6,84.8z"/>
	<path fill="#0B232B" d="M63.2,89.3l-5.3,3.3c0.7,1.1,1.5,2.1,2.4,3.1l4.6-4.3C64.2,90.7,63.7,90,63.2,89.3z"/>
	<path fill="#0B232B" d="M76,96l0.2,6.2c1.3,0,2.6-0.2,3.9-0.5l-1.4-6.1C77.8,95.9,76.9,96,76,96z"/>
	<path fill="#0B232B" d="M65.6,92.2l-4.3,4.6c0.9,0.9,2,1.7,3.1,2.4l3.3-5.3C67,93.3,66.3,92.8,65.6,92.2z"/>
	<path fill="#0B232B" d="M61.6,85.8l-6,1.8c0.4,1.2,0.9,2.5,1.5,3.6l5.5-2.9C62.2,87.5,61.9,86.7,61.6,85.8z"/>
	<path fill="#0B232B" d="M70.8,101.8c1.2,0.3,2.5,0.5,3.9,0.5l0.2-6.2c-0.9,0-1.8-0.2-2.6-0.3L70.8,101.8z"/>
	<path fill="#0B232B" d="M68.7,94.4l-2.9,5.5c1.1,0.6,2.3,1.1,3.6,1.5l1.8-6C70.3,95.1,69.5,94.8,68.7,94.4z"/>
	<path fill="#0B232B" d="M143,81.5c-2.1,0-3.8,1.4-4.5,3.4c-1.4-0.1-2.8-0.1-4.4,0.7c-0.8,0.4-1.1,1.2-1.4,1.9
		c-0.4,1-0.7,1.5-1.7,1.5l-3,0c-1.2,0-2,0-3.4,0c-1-0.1-1.5-0.7-2.2-1.8c-0.5-0.8-1.2-1.9-2.3-2.2c1.2-0.2,1.9-1.3,2.4-2.3
		c0.6-1.2,1-1.7,1.7-1.8c1.2-0.1,1.9-0.1,2.9,0l1.2,0c0.4,0.9,1.2,1.6,2.2,1.6c1.3,0,2.4-1.1,2.4-2.5c0-1.4-1.1-2.5-2.4-2.6
		c-0.6,0-1.2,0.2-1.6,0.6l-1.8,0c-0.5,0-0.9,0-1.4,0c-0.5,0-1.1,0-1.8,0.1c-2.2,0.1-3.2,2-3.9,3.2c-0.2,0.3-0.4,0.8-0.6,0.9
		c-4.5,0.5-9.3,0.2-14.1-0.1c0-0.2,0-0.5,0-0.7c0-1.9-0.2-3.8-0.5-5.6c1.1,0.1,2.4,0.2,3.6-0.6c1.1-0.7,1.7-1.9,2.2-3
		c0.3-0.7,0.7-1.5,1.1-1.8c0.8-0.6,2.8-0.6,4-0.6l0.6,0v0c0.5,0,1,0,1.5,0c1,0,1.9,0,3,0.1c1.5,0.1,1.6,0.8,1.8,2
		c0.2,1.2,0.6,3,3,3.1c1.9,0.1,3.9,0.1,6,0.1c0.5,1.6,2,2.8,3.7,2.8c2.1,0,3.9-1.8,3.9-4.1c0-2.3-1.7-4.1-3.9-4.1
		c-2,0-3.6,1.6-3.9,3.7c-2,0-4,0-5.8-0.1c-1.1,0-1.2-0.4-1.5-1.7c-0.2-1.1-0.6-2.8-2.6-3.3c1.9-0.5,2.2-2.1,2.4-3.2
		c0.3-1.3,0.4-1.7,1.5-1.7l0.9,0c0.2,1.2,1.2,2.2,2.4,2.2c1.3,0,2.4-1.1,2.4-2.5s-1.1-2.5-2.4-2.5c-0.9,0-1.6,0.5-2,1.2l-1.2,0
		c-2.4,0.1-2.8,1.9-3,3.1c-0.3,1.2-0.4,1.9-1.8,2c-1,0.1-2,0.1-3,0.1c-1.1,0-2.2,0-3.3,0.1l0,0c-1.5,0-3.1,0.2-4.2,1.1
		c-0.9,0.7-1.4,1.8-1.9,2.8c-0.3,0.7-0.7,1.6-1.1,1.8c-0.7,0.4-1.5,0.3-2.4,0.2c-0.2,0-0.4,0-0.6-0.1c-1-3.3-2.5-6.4-4.6-9.2h14.6
		c0.4,0.7,1.2,1.2,2,1.2c1.3,0,2.4-1.1,2.4-2.4c0-1.3-1.1-2.4-2.4-2.4c-0.7,0-1.4,0.3-1.8,0.8H97.3c-5.5-5.8-13.3-9.5-21.9-9.5
		c-6.9,0-13.3,2.4-18.4,6.3H20.9c-0.4-0.8-1.2-1.3-2.1-1.3c-1.3,0-2.4,1.1-2.4,2.4c0,1.3,1.1,2.4,2.4,2.4c0.7,0,1.4-0.3,1.8-0.8
		h33.5c-1.6,1.6-3,3.5-4.2,5.4h-18c-0.4-0.8-1.2-1.3-2.1-1.3c-1.3,0-2.4,1.1-2.4,2.4s1.1,2.4,2.4,2.4c0.7,0,1.4-0.3,1.8-0.8h16.9
		c-1,2.1-1.8,4.4-2.3,6.8c-4.9,0.1-9.8,0.3-14.6-0.2c-0.2-0.1-0.5-0.6-0.7-1c-0.7-1.2-1.9-3-4.3-3.1c-0.3,0-0.6,0-0.9,0
		c-0.4-1.4-1.9-4.9-5.1-5c-1.4,0-1.9,0-2.5,0l-1.2,0c-0.4-0.7-1.2-1.3-2.1-1.3c-1.3,0-2.4,1.1-2.4,2.5s1.1,2.6,2.4,2.5
		c1.2,0,2.2-0.9,2.4-2.1l0.9,0c0.6,0,1.1,0,2.4,0c1.9,0.1,2.9,2,3.4,3.2c-0.3,0-0.6,0-1,0l-3,0c-2.8,0-3.7,2.1-4.2,3.2
		c-0.1,0.2-0.2,0.4-0.2,0.5c-0.7,0.4-1.4,0.4-2.1,0.4c-0.3,0-0.6,0-1,0c-0.6-2.1-2.4-3.6-4.5-3.6c-2.6,0-4.7,2.2-4.7,5
		c0,2.7,2.1,5,4.7,5c2.1,0,3.8-1.4,4.5-3.4c1.4,0.1,2.8,0.1,4.4-0.7c0.8-0.4,1.1-1.2,1.4-1.9c0.4-1.1,0.7-1.5,1.7-1.5l3,0
		c1.2,0,2,0,3.4,0c1,0.1,1.5,0.7,2.2,1.8c0.5,0.8,1.2,1.9,2.3,2.2c-1.2,0.2-1.9,1.3-2.4,2.3c-0.6,1.2-1,1.7-1.7,1.8
		c-1.2,0.1-1.9,0.1-2.9,0l-1.2,0c-0.4-0.9-1.2-1.6-2.2-1.6c-1.3,0-2.4,1.1-2.4,2.5c0,1.4,1.1,2.5,2.4,2.6c0.6,0,1.2-0.2,1.6-0.6
		l1.8,0c0.5,0,0.9,0,1.4,0c0.5,0,1.1,0,1.8-0.1c2.2-0.1,3.2-2,3.9-3.2c0.2-0.3,0.4-0.8,0.6-0.9c4.6-0.5,9.4-0.2,14.1,0.1
		c0,0.2,0,0.5,0,0.7c0,1.9,0.2,3.7,0.5,5.5c-1.1-0.1-2.4-0.2-3.6,0.6c-1.1,0.7-1.7,1.9-2.2,3c-0.3,0.7-0.7,1.5-1.1,1.8
		c-0.8,0.6-2.8,0.6-4,0.6l-0.6,0v0c-0.5,0-1,0-1.5,0c-1,0-1.9,0-3-0.1c-1.5-0.1-1.6-0.8-1.8-2c-0.2-1.2-0.6-3-3-3.1
		c-1.9-0.1-3.9-0.1-6-0.1c-0.5-1.6-2-2.8-3.7-2.8c-2.1,0-3.9,1.8-3.9,4.1c0,2.3,1.7,4.1,3.9,4.1c2,0,3.6-1.6,3.9-3.7
		c2,0,4,0,5.8,0.1c1.1,0,1.2,0.4,1.5,1.7c0.2,1.1,0.6,2.8,2.6,3.3c-1.9,0.5-2.2,2.1-2.4,3.2c-0.3,1.3-0.4,1.7-1.5,1.7l-0.9,0
		c-0.2-1.2-1.2-2.2-2.4-2.2c-1.3,0-2.4,1.1-2.4,2.5s1.1,2.5,2.4,2.5c0.9,0,1.6-0.5,2-1.2l1.2,0c2.4-0.1,2.8-1.9,3-3.1
		c0.3-1.2,0.4-1.9,1.8-2c1-0.1,2-0.1,3-0.1c1.1,0,2.2,0,3.3-0.1l0,0c1.5,0,3.1-0.2,4.2-1.1c0.9-0.7,1.4-1.8,1.9-2.8
		c0.3-0.7,0.7-1.6,1.1-1.8c0.7-0.4,1.5-0.3,2.4-0.2c0.2,0,0.4,0,0.7,0.1c1,3.3,2.5,6.4,4.5,9.2H36.5c-0.4-0.7-1.2-1.2-2-1.2
		c-1.3,0-2.4,1.1-2.4,2.4c0,1.3,1.1,2.4,2.4,2.4c0.7,0,1.4-0.3,1.8-0.8h17.2c5.5,5.9,13.3,9.5,21.9,9.5c7,0,13.4-2.4,18.5-6.4h36
		c0.4,0.8,1.2,1.3,2.1,1.3c1.3,0,2.4-1.1,2.4-2.4c0-1.3-1.1-2.4-2.4-2.4c-0.7,0-1.4,0.3-1.8,0.8H96.9c1.6-1.6,3-3.5,4.2-5.4H119
		c0.4,0.8,1.2,1.3,2.1,1.3c1.3,0,2.4-1.1,2.4-2.4s-1.1-2.4-2.4-2.4c-0.7,0-1.4,0.3-1.8,0.8h-16.8c1-2.1,1.8-4.4,2.3-6.8
		c4.9-0.1,9.7-0.3,14.5,0.2c0.2,0.1,0.5,0.6,0.7,1c0.7,1.2,1.9,3,4.3,3.1c0.3,0,0.6,0,0.9,0c0.4,1.4,1.9,4.9,5.1,5
		c1.4,0,1.9,0,2.5,0l1.2,0c0.4,0.7,1.2,1.3,2.1,1.3c1.3,0,2.4-1.1,2.4-2.5s-1.1-2.6-2.4-2.5c-1.2,0-2.2,0.9-2.4,2.1l-0.9,0
		c-0.6,0-1.1,0-2.4,0c-1.9-0.1-2.9-2-3.4-3.2c0.3,0,0.6,0,1,0l3,0c2.8,0,3.7-2.1,4.2-3.2c0.1-0.2,0.2-0.4,0.2-0.5
		c0.7-0.4,1.4-0.4,2.1-0.4c0.3,0,0.6,0,1,0c0.6,2.1,2.4,3.6,4.5,3.6c2.6,0,4.7-2.2,4.7-5C147.7,83.8,145.6,81.5,143,81.5z
		 M75.5,109.9c-15.6,0-28.3-12.7-28.3-28.3c0-15.6,12.7-28.3,28.3-28.3s28.3,12.7,28.3,28.3C103.7,97.2,91.1,109.9,75.5,109.9z"/>
</g>
</svg>
